<svg viewBox="-910.5 -424.5 1821 849" width="1821" height="849" style="background-color: rgb(255, 255, 255);" xmlns="http://www.w3.org/2000/svg"><path d="M599.3947293898486,-233.23798777925617L599.3947293898486,49.61331763698389M599.3947293898486,49.61331763698389L579.6299507568498,52.096852255327235M599.3947293898486,49.61331763698389L604.2527794097161,59.71747707507123M579.6299507568498,-230.75445316091282L579.6299507568498,52.096852255327235M579.6299507568498,52.096852255327235L584.4880007767173,62.201011693414564" style="fill:none;stroke:rgb(0,0,0);stroke-width:1;stroke-linecap:round"></path><path d="M584.4880007767173,62.201011693414564L579.6299507568498,52.09685225532723L599.3947293898486,49.6133176369839zM604.2527794097161,59.717477075071244L584.4880007767173,62.201011693414564L599.3947293898486,49.6133176369839z" style="fill:rgb(238,238,238); fill-opacity: 0.4"></path><path d="M584.4880007767173,62.201011693414564L604.2527794097161,59.71747707507123M604.2527794097161,-223.13382834116882L604.2527794097161,59.71747707507123M584.4880007767173,-220.6502937228255L584.4880007767173,62.201011693414564M676.1886040480214,-153.9391264088889L676.1886040480214,-48.98454522807945M676.1886040480214,-48.98454522807945L656.4238254150225,-46.50101060973612M676.1886040480214,-48.98454522807945L681.0466540678889,-38.8803857899921M656.4238254150225,-151.45559179054555L656.4238254150225,-46.50101060973612M656.4238254150225,-46.50101060973612L661.28187543489,-36.39685117164876" style="fill:none;stroke:rgb(0,0,0);stroke-width:1;stroke-linecap:round"></path><path d="M661.2818754348901,-36.39685117164877L656.4238254150225,-46.50101060973612L676.1886040480213,-48.984545228079455z" style="fill:rgb(238,238,238); fill-opacity: 0.4"></path><path d="M752.9824787061942,-119.85755206535232L752.9824787061942,-102.36512106631216M752.9824787061942,-102.36512106631216L733.2177000731954,-99.88158644796883M752.9824787061942,-102.36512106631216L757.8405287260617,-92.2609616282248M504.01050061273014,-139.1336536343401L504.01050061273014,-58.931513032934184M504.01050061273014,-58.931513032934184L365.6570529010979,-41.54677104623077M504.01050061273014,-58.931513032934184L526.2844778983035,-12.604320662875853" style="fill:none;stroke:rgb(0,0,0);stroke-width:1;stroke-linecap:round"></path><path d="M681.0466540678889,-38.880385789992104L661.2818754348901,-36.39685117164877L676.1886040480213,-48.984545228079455z" style="fill:rgb(238,238,238); fill-opacity: 0.4"></path><path d="M733.2177000731954,-117.37401744700898L733.2177000731954,-99.88158644796883M733.2177000731954,-99.88158644796883L738.075750093063,-89.77742700988148" style="fill:none;stroke:rgb(0,0,0);stroke-width:1;stroke-linecap:round"></path><path d="M752.9824787061942,-102.36512106631216L733.2177000731954,-99.88158644796883L733.2177000731954,-117.37401744700898z" style="fill:rgb(238,238,238); fill-opacity: 0.4"></path><path d="M661.28187543489,-36.39685117164876L681.0466540678889,-38.8803857899921M681.0466540678889,-143.83496697080153L681.0466540678889,-38.8803857899921" style="fill:none;stroke:rgb(0,0,0);stroke-width:1;stroke-linecap:round"></path><path d="M752.9824787061942,-119.85755206535232L752.9824787061942,-102.36512106631216L733.2177000731954,-117.37401744700898zM738.075750093063,-89.77742700988148L733.2177000731954,-99.88158644796883L752.9824787061942,-102.36512106631216zM757.8405287260618,-92.26096162822482L752.9824787061942,-102.36512106631216L752.9824787061942,-119.85755206535232z" style="fill:rgb(238,238,238); fill-opacity: 0.4"></path><path d="M752.9824787061942,-119.85755206535232L733.2177000731954,-117.37401744700898M752.9824787061942,-119.85755206535232L757.8405287260617,-109.75339262726496M661.28187543489,-141.35143235245823L661.28187543489,-36.39685117164876" style="fill:none;stroke:rgb(0,0,0);stroke-width:1;stroke-linecap:round"></path><path d="M599.3947293898486,49.6133176369839L579.6299507568498,52.09685225532723L579.6299507568499,-230.7544531609128zM757.8405287260618,-92.26096162822482L738.075750093063,-89.77742700988148L752.9824787061942,-102.36512106631216zM676.1886040480213,-48.984545228079455L656.4238254150225,-46.50101060973612L656.4238254150225,-151.45559179054558z" style="fill:rgb(238,238,238); fill-opacity: 0.4"></path><path d="M733.2177000731954,-117.37401744700898L738.075750093063,-107.26985800892163" style="fill:none;stroke:rgb(0,0,0);stroke-width:1;stroke-linecap:round"></path><path d="M604.2527794097161,59.717477075071244L599.3947293898486,49.6133176369839L599.3947293898486,-233.23798777925612zM681.0466540678889,-38.880385789992104L676.1886040480213,-48.984545228079455L676.1886040480213,-153.9391264088889zM733.2177000731954,-117.37401744700898L733.2177000731954,-99.88158644796883L738.075750093063,-107.26985800892163z" style="fill:rgb(238,238,238); fill-opacity: 0.4"></path><path d="M738.075750093063,-89.77742700988148L757.8405287260617,-92.2609616282248M757.8405287260617,-109.75339262726496L757.8405287260617,-92.2609616282248" style="fill:none;stroke:rgb(0,0,0);stroke-width:1;stroke-linecap:round"></path><path d="M757.8405287260618,-109.75339262726496L752.9824787061942,-119.85755206535232L733.2177000731954,-117.37401744700898zM757.8405287260618,-109.75339262726496L757.8405287260618,-92.26096162822482L752.9824787061942,-119.85755206535232z" style="fill:rgb(238,238,238); fill-opacity: 0.4"></path><path d="M712.1191577691675,-102.34510173876849L713.7855716131486,-94.51970769994061L713.7855716131486,-100.82876854645626z" style="fill:rgb(0,0,0)"></path><path d="M733.2177000731954,-99.88158644796883L738.075750093063,-89.77742700988148L738.075750093063,-107.26985800892163z" style="fill:rgb(238,238,238); fill-opacity: 0.4"></path><path d="M712.7556712584791,-108.07497484419369L712.1191577691675,-102.34510173876849L713.7855716131486,-100.82876854645626z" style="fill:rgb(0,0,0)"></path><path d="M738.075750093063,-107.26985800892163L738.075750093063,-89.77742700988148" style="fill:none;stroke:rgb(0,0,0);stroke-width:1;stroke-linecap:round"></path><path d="M715.4519854571298,-95.41322121034165L713.7855716131486,-94.51970769994061L732.7952703063102,-103.21742392506596z" style="fill:rgb(0,0,0)"></path><path d="M738.075750093063,-89.77742700988148L757.8405287260618,-92.26096162822482L757.8405287260618,-109.75339262726496z" style="fill:rgb(238,238,238); fill-opacity: 0.4"></path><path d="M681.4690838347741,-96.76805440281979L713.7855716131486,-100.82876854645627" style="fill:none;stroke:rgb(0,0,0);stroke-width:1;stroke-linecap:round"></path><path d="M713.7855716131486,-94.51970769994061L715.4519854571298,-95.41322121034165L713.7855716131486,-100.82876854645626zM712.7556712584791,-108.07497484419369L714.8154719678181,-103.79083723903683L732.7952703063102,-103.21742392506596z" style="fill:rgb(0,0,0)"></path><path d="M738.075750093063,-107.26985800892163L757.8405287260618,-109.75339262726496L733.2177000731954,-117.37401744700898z" style="fill:rgb(238,238,238); fill-opacity: 0.4"></path><path d="M714.8154719678181,-103.79083723903683L712.7556712584791,-108.07497484419369L713.7855716131486,-100.82876854645626zM714.8154719678181,-103.79083723903683L715.4519854571298,-95.41322121034165L732.7952703063102,-103.21742392506596z" style="fill:rgb(0,0,0)"></path><path d="M579.6299507568498,52.09685225532723L584.4880007767173,62.201011693414564L584.4880007767174,-220.65029372282544z" style="fill:rgb(238,238,238); fill-opacity: 0.4"></path><path d="M715.4519854571298,-95.41322121034165L714.8154719678181,-103.79083723903683L713.7855716131486,-100.82876854645626z" style="fill:rgb(0,0,0)"></path><path d="M656.4238254150225,-46.50101060973612L661.2818754348901,-36.39685117164877L661.2818754348901,-141.35143235245823zM738.075750093063,-107.26985800892163L738.075750093063,-89.77742700988148L757.8405287260618,-109.75339262726496z" style="fill:rgb(238,238,238); fill-opacity: 0.4"></path><path d="M738.075750093063,-107.26985800892163L757.8405287260617,-109.75339262726496" style="fill:none;stroke:rgb(0,0,0);stroke-width:1;stroke-linecap:round"></path><path d="M584.4880007767173,62.201011693414564L604.2527794097161,59.717477075071244L604.2527794097163,-223.1338283411688z" style="fill:rgb(238,238,238); fill-opacity: 0.4"></path><path d="M306.198929806693,-128.38123853798803L306.198929806693,-30.686669344257627M306.198929806693,-30.686669344257627L167.8454820950608,-13.301927357554213M306.198929806693,-30.686669344257627L333.33095644373367,25.744681073695972" style="fill:none;stroke:rgb(0,0,0);stroke-width:1;stroke-linecap:round"></path><path d="M661.2818754348901,-36.39685117164877L681.0466540678889,-38.880385789992104L681.0466540678889,-143.83496697080156z" style="fill:rgb(238,238,238); fill-opacity: 0.4"></path><path d="M365.6570529010979,-121.7489116476367L365.6570529010979,-41.54677104623077M365.6570529010979,-41.54677104623077L387.93103018667125,4.780421323827548" style="fill:none;stroke:rgb(0,0,0);stroke-width:1;stroke-linecap:round"></path><path d="M676.1886040480213,-153.9391264088889L676.1886040480213,-48.984545228079455L656.4238254150225,-151.45559179054558z" style="fill:rgb(238,238,238); fill-opacity: 0.4"></path><path d="M635.3252831109947,-92.69560099142043L636.9916969549759,-84.87020695259257L636.9916969549759,-91.1792677991082zM635.9617966003063,-98.42547409684563L635.3252831109947,-92.69560099142043L636.9916969549759,-91.1792677991082z" style="fill:rgb(0,0,0)"></path><path d="M504.01050061273014,-58.931513032934184L365.6570529010979,-41.54677104623078L365.6570529010979,-121.7489116476367z" style="fill:rgb(238,238,238); fill-opacity: 0.4"></path><path d="M638.658110798957,-85.76372046299359L636.9916969549759,-84.87020695259257L656.0013956481373,-93.56792317771789z" style="fill:rgb(0,0,0)"></path><path d="M604.6752091766012,-87.11855365547171L636.9916969549757,-91.17926779910819" style="fill:none;stroke:rgb(0,0,0);stroke-width:1;stroke-linecap:round"></path><path d="M636.9916969549759,-84.87020695259257L638.658110798957,-85.76372046299359L636.9916969549759,-91.1792677991082zM635.9617966003063,-98.42547409684563L638.0215973096454,-94.14133649168879L656.0013956481373,-93.56792317771789zM638.0215973096454,-94.14133649168879L635.9617966003063,-98.42547409684563L636.9916969549759,-91.1792677991082zM638.0215973096454,-94.14133649168879L638.658110798957,-85.76372046299359L656.0013956481373,-93.56792317771789z" style="fill:rgb(0,0,0)"></path><path d="M656.4238254150225,-151.45559179054558L656.4238254150225,-46.50101060973612L661.2818754348901,-141.35143235245823z" style="fill:rgb(238,238,238); fill-opacity: 0.4"></path><path d="M638.658110798957,-85.76372046299359L638.0215973096454,-94.14133649168879L636.9916969549759,-91.1792677991082z" style="fill:rgb(0,0,0)"></path><path d="M681.0466540678889,-143.83496697080156L681.0466540678889,-38.880385789992104L676.1886040480213,-153.9391264088889zM504.01050061273014,-139.1336536343401L504.01050061273014,-58.931513032934184L365.6570529010979,-121.7489116476367zM526.2844778983034,-12.60432066287586L504.01050061273014,-58.931513032934184L504.01050061273014,-139.1336536343401zM387.9310301866712,4.780421323827543L365.6570529010979,-41.54677104623078L504.01050061273014,-58.931513032934184z" style="fill:rgb(238,238,238); fill-opacity: 0.4"></path><path d="M504.01050061273014,-139.1336536343401L365.6570529010979,-121.7489116476367M504.01050061273014,-139.1336536343401L526.2844778983035,-92.80646126428178" style="fill:none;stroke:rgb(0,0,0);stroke-width:1;stroke-linecap:round"></path><path d="M558.5314084528219,-83.04610024407239L560.1978222968031,-75.22070620524453L560.1978222968031,-81.52976705176016z" style="fill:rgb(0,0,0)"></path><path d="M661.2818754348901,-141.35143235245823L661.2818754348901,-36.39685117164877L681.0466540678889,-143.83496697080156z" style="fill:rgb(238,238,238); fill-opacity: 0.4"></path><path d="M559.1679219421336,-88.77597334949759L558.5314084528219,-83.04610024407239L560.1978222968031,-81.52976705176016z" style="fill:rgb(0,0,0)"></path><path d="M676.1886040480214,-153.9391264088889L656.4238254150225,-151.45559179054555M676.1886040480214,-153.9391264088889L681.0466540678889,-143.83496697080153" style="fill:none;stroke:rgb(0,0,0);stroke-width:1;stroke-linecap:round"></path><path d="M561.8642361407842,-76.11421971564555L560.1978222968031,-75.22070620524453L579.2075209899646,-83.91842243036984z" style="fill:rgb(0,0,0)"></path><path d="M527.8813345184285,-77.46905290812367L560.197822296803,-81.52976705176015" style="fill:none;stroke:rgb(0,0,0);stroke-width:1;stroke-linecap:round"></path><path d="M560.1978222968031,-75.22070620524453L561.8642361407842,-76.11421971564555L560.1978222968031,-81.52976705176016zM559.1679219421336,-88.77597334949759L561.2277226514726,-84.49183574434075L579.2075209899646,-83.91842243036984z" style="fill:rgb(0,0,0)"></path><path d="M656.4238254150225,-151.45559179054555L661.28187543489,-141.35143235245823" style="fill:none;stroke:rgb(0,0,0);stroke-width:1;stroke-linecap:round"></path><path d="M561.2277226514726,-84.49183574434075L559.1679219421336,-88.77597334949759L560.1978222968031,-81.52976705176016zM561.2277226514726,-84.49183574434075L561.8642361407842,-76.11421971564555L579.2075209899646,-83.91842243036984z" style="fill:rgb(0,0,0)"></path><path d="M167.8454820950608,-110.99649655128461L167.8454820950608,-13.301927357554213M167.8454820950608,-13.301927357554213L194.9775087321014,43.129423060399375" style="fill:none;stroke:rgb(0,0,0);stroke-width:1;stroke-linecap:round"></path><path d="M561.8642361407842,-76.11421971564555L561.2277226514726,-84.49183574434075L560.1978222968031,-81.52976705176016z" style="fill:rgb(0,0,0)"></path><path d="M681.0466540678889,-143.83496697080156L676.1886040480213,-153.9391264088889L656.4238254150225,-151.45559179054558zM526.2844778983034,-12.60432066287586L387.9310301866712,4.780421323827543L504.01050061273014,-58.931513032934184zM661.2818754348901,-141.35143235245823L681.0466540678889,-143.83496697080156L656.4238254150225,-151.45559179054558zM599.3947293898486,-233.23798777925612L599.3947293898486,49.6133176369839L579.6299507568499,-230.7544531609128zM306.198929806693,-30.686669344257627L167.8454820950608,-13.301927357554218L167.8454820950608,-110.99649655128461z" style="fill:rgb(238,238,238); fill-opacity: 0.4"></path><path d="M110.53588544914618,-105.42391749823817L110.53588544914618,-5.709372550354604M110.53588544914618,-5.709372550354604L-8.052780910128089,9.19183447630558M110.53588544914618,-5.709372550354604L138.2289057670042,51.888777215394306M661.28187543489,-141.35143235245823L681.0466540678889,-143.83496697080153" style="fill:none;stroke:rgb(0,0,0);stroke-width:1;stroke-linecap:round"></path><path d="M579.6299507568499,-230.7544531609128L579.6299507568498,52.09685225532723L584.4880007767174,-220.65029372282544zM604.2527794097163,-223.1338283411688L604.2527794097161,59.717477075071244L599.3947293898486,-233.23798777925612zM306.198929806693,-128.38123853798803L306.198929806693,-30.686669344257627L167.8454820950608,-110.99649655128461z" style="fill:rgb(238,238,238); fill-opacity: 0.4"></path><path d="M365.6570529010979,-121.7489116476367L387.93103018667125,-75.42171927757838M387.93103018667125,4.780421323827548L526.2844778983035,-12.604320662875853M526.2844778983035,-92.80646126428178L526.2844778983035,-12.604320662875853" style="fill:none;stroke:rgb(0,0,0);stroke-width:1;stroke-linecap:round"></path><path d="M333.33095644373367,25.74468107369597L306.198929806693,-30.686669344257627L306.198929806693,-128.38123853798803zM194.97750873210143,43.129423060399375L167.8454820950608,-13.301927357554218L306.198929806693,-30.686669344257627zM526.2844778983034,-92.80646126428178L504.01050061273014,-139.1336536343401L365.6570529010979,-121.7489116476367zM526.2844778983034,-92.80646126428178L526.2844778983034,-12.60432066287586L504.01050061273014,-139.1336536343401zM584.4880007767174,-220.65029372282544L584.4880007767173,62.201011693414564L604.2527794097163,-223.1338283411688z" style="fill:rgb(238,238,238); fill-opacity: 0.4"></path><path d="M306.198929806693,-128.38123853798803L167.8454820950608,-110.99649655128461M306.198929806693,-128.38123853798803L333.33095644373367,-71.94988812003442" style="fill:none;stroke:rgb(0,0,0);stroke-width:1;stroke-linecap:round"></path><path d="M365.6570529010979,-121.7489116476367L365.6570529010979,-41.54677104623078L387.9310301866712,-75.42171927757838z" style="fill:rgb(238,238,238); fill-opacity: 0.4"></path><path d="M-67.51090744660267,-97.15504081031285L-67.51090744660267,20.051937543326574M-67.51090744660267,20.051937543326574L-186.09957380587693,34.953144569986755M-67.51090744660267,20.051937543326574L-34.95983644047687,87.75424813735494M-8.052780910128076,-90.522710471578L-8.052780910128089,9.19183447630558M-8.052780910128089,9.19183447630558L19.640239407729926,66.78998424205449" style="fill:none;stroke:rgb(0,0,0);stroke-width:1;stroke-linecap:round"></path><path d="M365.6570529010979,-41.54677104623078L387.9310301866712,4.780421323827543L387.9310301866712,-75.42171927757838zM333.33095644373367,25.74468107369597L194.97750873210143,43.129423060399375L306.198929806693,-30.686669344257627zM387.9310301866712,4.780421323827543L526.2844778983034,-12.60432066287586L526.2844778983034,-92.80646126428178zM110.53588544914619,-5.709372550354606L-8.052780910128101,9.191834476305582L-8.052780910128101,-90.52271047157798z" style="fill:rgb(238,238,238); fill-opacity: 0.4"></path><path d="M387.93103018667125,-75.42171927757838L387.93103018667125,4.780421323827548M167.8454820950608,-110.99649655128461L194.9775087321014,-54.565146133331" style="fill:none;stroke:rgb(0,0,0);stroke-width:1;stroke-linecap:round"></path><path d="M110.53588544914619,-105.42391749823817L110.53588544914619,-5.709372550354606L-8.052780910128101,-90.52271047157798z" style="fill:rgb(238,238,238); fill-opacity: 0.4"></path><path d="M120.67685677097329,-21.914432987927924L179.49769447842417,-19.42697792750144M120.67685677097329,-9.296311294896647L179.49769447842417,-19.42697792750144M124.18119913914562,-2.0077008711975237L179.49769447842417,-19.42697792750144M124.18119913914562,-14.625822564228804L179.49769447842417,-19.42697792750144M-186.09957380587693,-82.25383378365267L-186.09957380587693,34.953144569986755M-186.09957380587693,34.953144569986755L-153.54850279975113,102.65545516401511" style="fill:none;stroke:rgb(0,0,0);stroke-width:1;stroke-linecap:round"></path><path d="M19.640239407729922,66.7899842420545L-8.052780910128101,9.191834476305582L110.53588544914619,-5.709372550354606z" style="fill:rgb(238,238,238); fill-opacity: 0.4"></path><path d="M120.67686149827871,-21.914433633892116L120.67686149827871,-9.296311940860837M120.67686149827871,-9.296311940860837L2.088195139004444,5.60489508579935M120.67686149827871,-9.296311940860837L124.18120382467609,-2.0077016040487177M120.67685677097329,-21.914432987927924L120.67685677097329,-9.296311294896647M120.67685677097329,-9.296311294896647L124.18119913914562,-2.0077008711975237" style="fill:none;stroke:rgb(0,0,0);stroke-width:1;stroke-linecap:round"></path><path d="M387.9310301866712,-75.42171927757838L526.2844778983034,-92.80646126428178L365.6570529010979,-121.7489116476367z" style="fill:rgb(238,238,238); fill-opacity: 0.4"></path><path d="M120.67686405470687,-9.296312262087696L120.67686405470687,-21.914433955118977L179.49770173911685,-19.426978254994278z" style="fill:rgb(255,187,187); fill-opacity: 0.4"></path><path d="M138.2289057670042,51.8887772153943L110.53588544914619,-5.709372550354606L110.53588544914619,-105.42391749823817z" style="fill:rgb(238,238,238); fill-opacity: 0.4"></path><path d="M599.3947293898486,-233.23798777925617L579.6299507568498,-230.75445316091282M599.3947293898486,-233.23798777925617L604.2527794097161,-223.13382834116882" style="fill:none;stroke:rgb(0,0,0);stroke-width:1;stroke-linecap:round"></path><path d="M124.18120638110423,-2.0077019252755783L120.67686405470687,-9.296312262087696L179.49770173911685,-19.426978254994278z" style="fill:rgb(255,187,187); fill-opacity: 0.4"></path><path d="M194.9775087321014,43.129423060399375L333.33095644373367,25.744681073695972M333.33095644373367,-71.94988812003442L333.33095644373367,25.744681073695972" style="fill:none;stroke:rgb(0,0,0);stroke-width:1;stroke-linecap:round"></path><path d="M120.67686405470687,-21.914433955118977L120.67686405470687,-9.296312262087696L124.18120638110423,-2.0077019252755783z" style="fill:rgb(255,187,187); fill-opacity: 0.4"></path><path d="M124.18120382467609,-2.007701604048719L120.67686149827871,-9.296311940860837L120.67686149827871,-21.91443363389212z" style="fill:rgb(153,221,255); fill-opacity: 0.4"></path><path d="M579.6299507568498,-230.75445316091282L584.4880007767173,-220.6502937228255M120.67686149827871,-21.914433633892116L2.088195139004444,-7.013226607231929M120.67686149827871,-21.914433633892116L124.18120382467609,-14.625823297079998M120.67685677097329,-21.914432987927924L124.18119913914562,-14.625822564228804M387.93103018667125,-75.42171927757838L526.2844778983035,-92.80646126428178" style="fill:none;stroke:rgb(0,0,0);stroke-width:1;stroke-linecap:round"></path><path d="M120.67686405470687,-21.914433955118977L124.18120638110423,-14.625823618306857L179.49770173911685,-19.426978254994278z" style="fill:rgb(255,187,187); fill-opacity: 0.4"></path><path d="M110.53588544914618,-105.42391749823817L-8.052780910128076,-90.522710471578M110.53588544914618,-105.42391749823817L138.2289057670042,-47.825767732489275M-243.26092596789456,-75.8391540694699L-243.26092596789456,42.32024833475117M-243.26092596789456,42.32024833475117L-342.0848218522477,54.7379217681677M-243.26092596789456,42.32024833475117L-210.44534491864758,110.57270798812262" style="fill:none;stroke:rgb(0,0,0);stroke-width:1;stroke-linecap:round"></path><path d="M333.33095644373367,-71.94988812003442L306.198929806693,-128.38123853798803L167.8454820950608,-110.99649655128461zM604.2527794097163,-223.1338283411688L599.3947293898486,-233.23798777925612L579.6299507568499,-230.7544531609128zM167.8454820950608,-110.99649655128461L167.8454820950608,-13.301927357554218L194.97750873210143,-54.565146133331z" style="fill:rgb(238,238,238); fill-opacity: 0.4"></path><path d="M124.18120638110423,-14.625823618306857L124.18120638110423,-2.0077019252755783L179.49770173911685,-19.426978254994278z" style="fill:rgb(255,187,187); fill-opacity: 0.4"></path><path d="M325.8685606324608,-74.46964525354176L383.2432296695338,-69.3191147918801M325.8685606324608,-61.85152356051048L383.2432296695338,-69.3191147918801M329.3729029588581,-54.56291322369836L383.2432296695338,-69.3191147918801M329.3729029588581,-67.18103491672964L383.2432296695338,-69.3191147918801" style="fill:none;stroke:rgb(0,0,0);stroke-width:1;stroke-linecap:round"></path><path d="M387.9310301866712,-75.42171927757838L387.9310301866712,4.780421323827543L526.2844778983034,-92.80646126428178zM333.33095644373367,-71.94988812003442L333.33095644373367,25.74468107369597L306.198929806693,-128.38123853798803z" style="fill:rgb(238,238,238); fill-opacity: 0.4"></path><path d="M5.5925374654018105,12.893505422611467L124.18120382467609,-2.0077016040487177M124.18120382467609,-14.625823297079998L124.18120382467609,-2.0077016040487177M124.18119913914562,-2.0077008711975237L124.18119913914562,-14.625822564228804" style="fill:none;stroke:rgb(0,0,0);stroke-width:1;stroke-linecap:round"></path><path d="M120.67686405470687,-21.914433955118977L124.18120638110423,-2.0077019252755783L124.18120638110423,-14.625823618306857z" style="fill:rgb(255,187,187); fill-opacity: 0.4"></path><path d="M124.18120382467609,-14.625823297079998L124.18120382467609,-2.007701604048719L120.67686149827871,-21.91443363389212z" style="fill:rgb(153,221,255); fill-opacity: 0.4"></path><path d="M-67.51090744660267,20.05193754332657L-186.09957380587696,34.953144569986755L-186.09957380587696,-82.25383378365265z" style="fill:rgb(238,238,238); fill-opacity: 0.4"></path><path d="M120.67686149827871,-21.91443363389212L120.67686149827871,-9.296311940860837L2.088195139004444,-7.013226607231928zM124.18120382467609,-2.007701604048719L5.592537465401798,12.893505422611469L120.67686149827871,-9.296311940860837z" style="fill:rgb(153,221,255); fill-opacity: 0.4"></path><path d="M584.4880007767174,-220.65029372282544L604.2527794097163,-223.1338283411688L579.6299507568499,-230.7544531609128z" style="fill:rgb(238,238,238); fill-opacity: 0.4"></path><path d="M120.67686149827871,-9.296311940860837L2.088195139004444,5.6048950857993525L2.088195139004444,-7.013226607231928z" style="fill:rgb(153,221,255); fill-opacity: 0.4"></path><path d="M584.4880007767173,-220.6502937228255L604.2527794097161,-223.13382834116882M5.5925374654018105,0.2753837295801892L124.18120382467609,-14.625823297079998" style="fill:none;stroke:rgb(0,0,0);stroke-width:1;stroke-linecap:round"></path><path d="M124.18120382467609,-14.625823297079998L120.67686149827871,-21.91443363389212L2.088195139004444,-7.013226607231928zM5.592537465401798,12.893505422611469L2.088195139004444,5.6048950857993525L120.67686149827871,-9.296311940860837z" style="fill:rgb(153,221,255); fill-opacity: 0.4"></path><path d="M325.86857013398566,-61.851525459703005L325.86857013398566,-74.46964715273428L383.2432393912099,-69.31911551456581z" style="fill:rgb(255,187,187); fill-opacity: 0.4"></path><path d="M325.86856896439224,-74.46964700576954L325.86856896439224,-61.851525312738254M325.86856896439224,-61.851525312738254L187.51512125275997,-44.46678332603485M325.86856896439224,-61.851525312738254L329.3729112907896,-54.56291497592614M325.8685606324608,-74.46964525354176L325.8685606324608,-61.85152356051048M325.8685606324608,-61.85152356051048L329.3729029588581,-54.56291322369836" style="fill:none;stroke:rgb(0,0,0);stroke-width:1;stroke-linecap:round"></path><path d="M167.8454820950608,-13.301927357554218L194.97750873210143,43.129423060399375L194.97750873210143,-54.565146133331z" style="fill:rgb(238,238,238); fill-opacity: 0.4"></path><path d="M329.372912460383,-54.562915122890885L325.86857013398566,-61.851525459703005L383.2432393912099,-69.31911551456581z" style="fill:rgb(255,187,187); fill-opacity: 0.4"></path><path d="M138.2289057670042,51.8887772153943L19.640239407729922,66.7899842420545L110.53588544914619,-5.709372550354606z" style="fill:rgb(238,238,238); fill-opacity: 0.4"></path><path d="M5.592537465401798,12.893505422611469L124.18120382467609,-2.007701604048719L124.18120382467609,-14.625823297079998z" style="fill:rgb(153,221,255); fill-opacity: 0.4"></path><path d="M2.088195139004444,-7.013226607231929L2.088195139004444,5.60489508579935M2.088195139004444,5.60489508579935L5.5925374654018105,12.893505422611467" style="fill:none;stroke:rgb(0,0,0);stroke-width:1;stroke-linecap:round"></path><path d="M325.86857013398566,-74.46964715273428L329.372912460383,-67.18103681592216L383.2432393912099,-69.31911551456581z" style="fill:rgb(255,187,187); fill-opacity: 0.4"></path><path d="M-153.54850279975116,102.65545516401512L-186.09957380587696,34.953144569986755L-67.51090744660267,20.05193754332657zM-67.51090744660267,-97.15504081031284L-67.51090744660267,20.05193754332657L-186.09957380587696,-82.25383378365265z" style="fill:rgb(238,238,238); fill-opacity: 0.4"></path><path d="M325.86857013398566,-74.46964715273428L325.86857013398566,-61.851525459703005L329.372912460383,-54.562915122890885z" style="fill:rgb(255,187,187); fill-opacity: 0.4"></path><path d="M329.3729112907896,-54.56291497592614L325.86856896439224,-61.851525312738254L325.86856896439224,-74.46964700576953z" style="fill:rgb(153,221,255); fill-opacity: 0.4"></path><path d="M-401.6072429389155,-70.41908196602388L-401.6072429389155,65.6958155745717M-401.6072429389155,65.6958155745717L-432.93367638675346,69.63212487413756M-401.6072429389155,65.6958155745717L-363.8050083188308,144.319914576281" style="fill:none;stroke:rgb(0,0,0);stroke-width:1;stroke-linecap:round"></path><path d="M329.372912460383,-67.18103681592216L329.372912460383,-54.562915122890885L383.2432393912099,-69.31911551456581z" style="fill:rgb(255,187,187); fill-opacity: 0.4"></path><path d="M325.86856896439224,-74.46964700576954L187.51512125275997,-57.08490501906613M325.86856896439224,-74.46964700576954L329.3729112907896,-67.1810366689574M325.8685606324608,-74.46964525354176L329.3729029588581,-67.18103491672964M-342.0848218522477,-63.42148063605336L-342.0848218522477,54.7379217681677M-342.0848218522477,54.7379217681677L-309.26924080300074,122.99038142153917" style="fill:none;stroke:rgb(0,0,0);stroke-width:1;stroke-linecap:round"></path><path d="M5.592537465401798,0.27538372958019136L124.18120382467609,-14.625823297079998L2.088195139004444,-7.013226607231928z" style="fill:rgb(153,221,255); fill-opacity: 0.4"></path><path d="M2.088195139004444,-7.013226607231929L5.5925374654018105,0.2753837295801892" style="fill:none;stroke:rgb(0,0,0);stroke-width:1;stroke-linecap:round"></path><path d="M5.592537465401798,0.27538372958019136L5.592537465401798,12.893505422611469L124.18120382467609,-14.625823297079998z" style="fill:rgb(153,221,255); fill-opacity: 0.4"></path><path d="M191.01946357915733,-37.17817298922272L329.3729112907896,-54.56291497592614M329.3729112907896,-67.1810366689574L329.3729112907896,-54.56291497592614M329.3729029588581,-54.56291322369836L329.3729029588581,-67.18103491672964" style="fill:none;stroke:rgb(0,0,0);stroke-width:1;stroke-linecap:round"></path><path d="M2.088195139004444,-7.013226607231928L2.088195139004444,5.6048950857993525L5.592537465401798,0.27538372958019136z" style="fill:rgb(153,221,255); fill-opacity: 0.4"></path><path d="M194.97750873210143,43.129423060399375L333.33095644373367,25.74468107369597L333.33095644373367,-71.94988812003442z" style="fill:rgb(238,238,238); fill-opacity: 0.4"></path><path d="M-8.052780910128076,-90.522710471578L19.640239407729933,-32.92456070582909M194.9775087321014,-54.565146133331L194.9775087321014,43.129423060399375" style="fill:none;stroke:rgb(0,0,0);stroke-width:1;stroke-linecap:round"></path><path d="M-34.95983644047687,87.75424813735495L-67.51090744660267,20.05193754332657L-67.51090744660267,-97.15504081031284z" style="fill:rgb(238,238,238); fill-opacity: 0.4"></path><path d="M325.86857013398566,-74.46964715273428L329.372912460383,-54.562915122890885L329.372912460383,-67.18103681592216z" style="fill:rgb(255,187,187); fill-opacity: 0.4"></path><path d="M329.3729112907896,-67.18103666895742L329.3729112907896,-54.56291497592614L325.86856896439224,-74.46964700576953z" style="fill:rgb(153,221,255); fill-opacity: 0.4"></path><path d="M-432.93367638675346,-66.48277266645799L-432.93367638675346,69.63212487413756M-432.93367638675346,69.63212487413756L-395.1314417666688,148.25622387584687" style="fill:none;stroke:rgb(0,0,0);stroke-width:1;stroke-linecap:round"></path><path d="M2.088195139004444,5.6048950857993525L5.592537465401798,12.893505422611469L5.592537465401798,0.27538372958019136zM325.86856896439224,-74.46964700576953L325.86856896439224,-61.851525312738254L187.51512125276003,-57.08490501906613z" style="fill:rgb(153,221,255); fill-opacity: 0.4"></path><path d="M5.5925374654018105,0.2753837295801892L5.5925374654018105,12.893505422611467" style="fill:none;stroke:rgb(0,0,0);stroke-width:1;stroke-linecap:round"></path><path d="M329.3729112907896,-54.56291497592614L191.0194635791574,-37.17817298922274L325.86856896439224,-61.851525312738254z" style="fill:rgb(153,221,255); fill-opacity: 0.4"></path><path d="M191.01946357915733,-49.79629468225401L329.3729112907896,-67.1810366689574M-67.51090744660267,-97.15504081031285L-186.09957380587693,-82.25383378365267M-67.51090744660267,-97.15504081031285L-34.95983644047687,-29.452730216284483" style="fill:none;stroke:rgb(0,0,0);stroke-width:1;stroke-linecap:round"></path><path d="M329.3729112907896,-67.18103666895742L325.86856896439224,-74.46964700576953L187.51512125276003,-57.08490501906613zM325.86856896439224,-61.851525312738254L187.51512125276003,-44.46678332603486L187.51512125276003,-57.08490501906613zM191.0194635791574,-37.17817298922274L187.51512125276003,-44.46678332603486L325.86856896439224,-61.851525312738254zM191.0194635791574,-37.17817298922274L329.3729112907896,-54.56291497592614L329.3729112907896,-67.18103666895742z" style="fill:rgb(153,221,255); fill-opacity: 0.4"></path><path d="M19.640239407729926,66.78998424205449L138.2289057670042,51.888777215394306M138.2289057670042,-47.825767732489275L138.2289057670042,51.888777215394306" style="fill:none;stroke:rgb(0,0,0);stroke-width:1;stroke-linecap:round"></path><path d="M-8.052780910128101,-90.52271047157798L-8.052780910128101,9.191834476305582L19.640239407729922,-32.92456070582908zM-243.26092596789462,42.32024833475118L-342.0848218522477,54.737921768167716L-342.0848218522477,-63.42148063605336zM138.2289057670042,-47.825767732489275L110.53588544914619,-105.42391749823817L-8.052780910128101,-90.52271047157798zM194.97750873210143,-54.565146133331L333.33095644373367,-71.94988812003442L167.8454820950608,-110.99649655128461z" style="fill:rgb(238,238,238); fill-opacity: 0.4"></path><path d="M187.51512125275997,-57.08490501906613L187.51512125275997,-44.46678332603485M187.51512125275997,-44.46678332603485L191.01946357915733,-37.17817298922272" style="fill:none;stroke:rgb(0,0,0);stroke-width:1;stroke-linecap:round"></path><path d="M138.2289057670042,-47.825767732489275L138.2289057670042,51.8887772153943L110.53588544914619,-105.42391749823817z" style="fill:rgb(238,238,238); fill-opacity: 0.4"></path><path d="M-53.12582679917431,-20.52288016530253L5.676076138127096,-16.85954990521072M-53.12582679917431,-7.904758397061387L5.676076138127096,-16.85954990521072M-49.621484472776956,-0.6161480602492685L5.676076138127096,-16.85954990521072M-49.621484472776956,-13.234269828490412L5.676076138127096,-16.85954990521072" style="fill:none;stroke:rgb(0,0,0);stroke-width:1;stroke-linecap:round"></path><path d="M191.0194635791574,-49.796294682254015L329.3729112907896,-67.18103666895742L187.51512125276003,-57.08490501906613z" style="fill:rgb(153,221,255); fill-opacity: 0.4"></path><path d="M-34.95983644047687,87.75424813735495L-153.54850279975116,102.65545516401512L-67.51090744660267,20.05193754332657z" style="fill:rgb(238,238,238); fill-opacity: 0.4"></path><path d="M-53.12582679917431,-20.52288016530253L-53.12582679917431,-7.904758397061387M-53.12582679917431,-7.904758397061387L-49.621484472776956,-0.6161480602492685M-53.12583001039496,-20.522879838046048L-53.12583001039496,-7.90475814501477M-53.12583001039496,-7.90475814501477L-171.7144963696692,6.996448881645417M-53.12583001039496,-7.90475814501477L-49.621487683997586,-0.6161478082026506M187.51512125275997,-57.08490501906613L191.01946357915733,-49.79629468225401" style="fill:none;stroke:rgb(0,0,0);stroke-width:1;stroke-linecap:round"></path><path d="M191.0194635791574,-49.796294682254015L191.0194635791574,-37.17817298922274L329.3729112907896,-67.18103666895742z" style="fill:rgb(153,221,255); fill-opacity: 0.4"></path><path d="M-8.052780910128101,9.191834476305582L19.640239407729922,66.7899842420545L19.640239407729922,-32.92456070582908z" style="fill:rgb(238,238,238); fill-opacity: 0.4"></path><path d="M-53.12582745396681,-7.904758466241631L-53.12582745396681,-20.522880159272905L5.676078270588158,-16.859550082531456z" style="fill:rgb(255,187,187); fill-opacity: 0.4"></path><path d="M-401.6072429389154,65.6958155745717L-432.93367638675346,69.63212487413757L-432.93367638675346,-66.48277266645799z" style="fill:rgb(238,238,238); fill-opacity: 0.4"></path><path d="M187.51512125276003,-57.08490501906613L187.51512125276003,-44.46678332603486L191.0194635791574,-49.796294682254015z" style="fill:rgb(153,221,255); fill-opacity: 0.4"></path><path d="M-49.62148512756945,-0.6161481294295122L-53.12582745396681,-7.904758466241631L5.676078270588158,-16.859550082531456z" style="fill:rgb(255,187,187); fill-opacity: 0.4"></path><path d="M187.51512125276003,-44.46678332603486L191.0194635791574,-37.17817298922274L191.0194635791574,-49.796294682254015z" style="fill:rgb(153,221,255); fill-opacity: 0.4"></path><path d="M-309.26924080300074,122.99038142153914L-342.0848218522477,54.737921768167716L-243.26092596789462,42.32024833475118z" style="fill:rgb(238,238,238); fill-opacity: 0.4"></path><path d="M194.9775087321014,-54.565146133331L333.33095644373367,-71.94988812003442" style="fill:none;stroke:rgb(0,0,0);stroke-width:1;stroke-linecap:round"></path><path d="M194.97750873210143,-54.565146133331L194.97750873210143,43.129423060399375L333.33095644373367,-71.94988812003442z" style="fill:rgb(238,238,238); fill-opacity: 0.4"></path><path d="M191.01946357915733,-49.79629468225401L191.01946357915733,-37.17817298922272" style="fill:none;stroke:rgb(0,0,0);stroke-width:1;stroke-linecap:round"></path><path d="M-243.26092596789462,-75.8391540694699L-243.26092596789462,42.32024833475118L-342.0848218522477,-63.42148063605336z" style="fill:rgb(238,238,238); fill-opacity: 0.4"></path><path d="M-53.12582745396681,-20.522880159272905L-53.12582745396681,-7.904758466241631L-49.62148512756945,-0.6161481294295122z" style="fill:rgb(255,187,187); fill-opacity: 0.4"></path><path d="M-49.621487683997586,-0.6161478082026525L-53.12583001039494,-7.904758145014772L-53.12583001039494,-20.522879838046048z" style="fill:rgb(153,221,255); fill-opacity: 0.4"></path><path d="M-53.12582679917431,-20.52288016530253L-49.621484472776956,-13.234269828490412M-53.12583001039496,-20.522879838046048L-171.7144963696692,-5.621672811385863M-53.12583001039496,-20.522879838046048L-49.621487683997586,-13.23426950123393" style="fill:none;stroke:rgb(0,0,0);stroke-width:1;stroke-linecap:round"></path><path d="M-53.12582745396681,-20.522880159272905L-49.62148512756945,-13.234269822460789L5.676078270588158,-16.859550082531456zM-49.62148512756945,-13.234269822460789L-49.62148512756945,-0.6161481294295122L5.676078270588158,-16.859550082531456z" style="fill:rgb(255,187,187); fill-opacity: 0.4"></path><path d="M-186.09957380587693,-82.25383378365267L-153.54850279975113,-14.551523189624298M-49.621484472776956,-0.6161480602492685L-49.621484472776956,-13.234269828490412M-168.21015404327184,14.285059218457533L-49.621487683997586,-0.6161478082026506M-49.621487683997586,-13.23426950123393L-49.621487683997586,-0.6161478082026506" style="fill:none;stroke:rgb(0,0,0);stroke-width:1;stroke-linecap:round"></path><path d="M-53.12582745396681,-20.522880159272905L-49.62148512756945,-0.6161481294295122L-49.62148512756945,-13.234269822460789z" style="fill:rgb(255,187,187); fill-opacity: 0.4"></path><path d="M-49.621487683997586,-13.23426950123393L-49.621487683997586,-0.6161478082026525L-53.12583001039494,-20.522879838046048z" style="fill:rgb(153,221,255); fill-opacity: 0.4"></path><path d="M-210.44534491864763,110.57270798812262L-243.26092596789462,42.32024833475118L-243.26092596789462,-75.8391540694699z" style="fill:rgb(238,238,238); fill-opacity: 0.4"></path><path d="M-53.12583001039494,-20.522879838046048L-53.12583001039494,-7.904758145014772L-171.7144963696692,-5.621672811385861z" style="fill:rgb(153,221,255); fill-opacity: 0.4"></path><path d="M19.640239407729933,-32.92456070582909L19.640239407729926,66.78998424205449" style="fill:none;stroke:rgb(0,0,0);stroke-width:1;stroke-linecap:round"></path><path d="M-49.621487683997586,-0.6161478082026525L-168.21015404327187,14.285059218457532L-53.12583001039494,-7.904758145014772z" style="fill:rgb(153,221,255); fill-opacity: 0.4"></path><path d="M19.640239407729922,66.7899842420545L138.2289057670042,51.8887772153943L138.2289057670042,-47.825767732489275zM-395.1314417666688,148.25622387584687L-432.93367638675346,69.63212487413757L-401.6072429389154,65.6958155745717z" style="fill:rgb(238,238,238); fill-opacity: 0.4"></path><path d="M-53.12583001039494,-7.904758145014772L-171.7144963696692,6.9964488816454145L-171.7144963696692,-5.621672811385861z" style="fill:rgb(153,221,255); fill-opacity: 0.4"></path><path d="M-168.21015404327184,1.6669375254262562L-49.621487683997586,-13.23426950123393" style="fill:none;stroke:rgb(0,0,0);stroke-width:1;stroke-linecap:round"></path><path d="M-49.621487683997586,-13.23426950123393L-53.12583001039494,-20.522879838046048L-171.7144963696692,-5.621672811385861zM-168.21015404327187,14.285059218457532L-171.7144963696692,6.9964488816454145L-53.12583001039494,-7.904758145014772z" style="fill:rgb(153,221,255); fill-opacity: 0.4"></path><path d="M-243.26092596789456,-75.8391540694699L-342.0848218522477,-63.42148063605336M-243.26092596789456,-75.8391540694699L-210.44534491864758,-7.586694416098453" style="fill:none;stroke:rgb(0,0,0);stroke-width:1;stroke-linecap:round"></path><path d="M-168.21015404327187,14.285059218457532L-49.621487683997586,-0.6161478082026525L-49.621487683997586,-13.23426950123393z" style="fill:rgb(153,221,255); fill-opacity: 0.4"></path><path d="M-237.2311988981368,-47.34605006030211L-178.3804080944966,-44.117258210311434M-237.2311988981368,-34.727925960555126L-178.3804080944966,-44.117258210311434M-233.72685657173946,-27.439315623743013L-178.3804080944966,-44.117258210311434M-233.72685657173943,-40.05743972348999L-178.3804080944966,-44.117258210311434" style="fill:none;stroke:rgb(0,0,0);stroke-width:1;stroke-linecap:round"></path><path d="M-186.09957380587696,-82.25383378365265L-186.09957380587696,34.953144569986755L-153.54850279975116,-14.551523189624298z" style="fill:rgb(238,238,238); fill-opacity: 0.4"></path><path d="M-171.7144963696692,-5.621672811385863L-171.7144963696692,6.996448881645417M-171.7144963696692,6.996448881645417L-168.21015404327184,14.285059218457533M-237.23120060221427,-47.346048508628954L-237.23120060221427,-34.72792681559768M-237.23120060221427,-34.72792681559768L-336.0550964865674,-22.310253382181138M-237.23120060221427,-34.72792681559768L-233.7268582758169,-27.439316478785557M-237.2311988981368,-47.34605006030211L-237.2311988981368,-34.727925960555126M-237.2311988981368,-34.727925960555126L-233.72685657173946,-27.439315623743013" style="fill:none;stroke:rgb(0,0,0);stroke-width:1;stroke-linecap:round"></path><path d="M-401.6072429389154,-70.41908196602387L-401.6072429389154,65.6958155745717L-432.93367638675346,-66.48277266645799z" style="fill:rgb(238,238,238); fill-opacity: 0.4"></path><path d="M-237.23120209766975,-34.72792662768688L-237.23120209766975,-47.34604832071816L-178.3804058194358,-44.117259710795295z" style="fill:rgb(255,187,187); fill-opacity: 0.4"></path><path d="M-153.54850279975113,102.65545516401511L-34.95983644047687,87.75424813735494M-34.95983644047687,-29.452730216284483L-34.95983644047687,87.75424813735494" style="fill:none;stroke:rgb(0,0,0);stroke-width:1;stroke-linecap:round"></path><path d="M-233.72685977127244,-27.43931629087476L-237.23120209766975,-34.72792662768688L-178.3804058194358,-44.117259710795295z" style="fill:rgb(255,187,187); fill-opacity: 0.4"></path><path d="M-34.95983644047687,-29.452730216284486L-67.51090744660267,-97.15504081031284L-186.09957380587696,-82.25383378365265z" style="fill:rgb(238,238,238); fill-opacity: 0.4"></path><path d="M-168.21015404327187,1.6669375254262564L-49.621487683997586,-13.23426950123393L-171.7144963696692,-5.621672811385861z" style="fill:rgb(153,221,255); fill-opacity: 0.4"></path><path d="M19.640239407729922,-32.92456070582908L138.2289057670042,-47.825767732489275L-8.052780910128101,-90.52271047157798z" style="fill:rgb(238,238,238); fill-opacity: 0.4"></path><path d="M-171.7144963696692,-5.621672811385863L-168.21015404327184,1.6669375254262562" style="fill:none;stroke:rgb(0,0,0);stroke-width:1;stroke-linecap:round"></path><path d="M-233.72685827581697,-27.439316478785564L-237.23120060221427,-34.727926815597684L-237.23120060221427,-47.34604850862896z" style="fill:rgb(153,221,255); fill-opacity: 0.4"></path><path d="M-237.23120209766975,-47.34604832071816L-237.23120209766975,-34.72792662768688L-233.72685977127244,-27.43931629087476z" style="fill:rgb(255,187,187); fill-opacity: 0.4"></path><path d="M-237.23120060221427,-47.346048508628954L-336.0550964865674,-34.928375075212415M-237.23120060221427,-47.346048508628954L-233.7268582758169,-40.057438171816834M-237.2311988981368,-47.34605006030211L-233.72685657173943,-40.05743972348999" style="fill:none;stroke:rgb(0,0,0);stroke-width:1;stroke-linecap:round"></path><path d="M-168.21015404327187,1.6669375254262564L-168.21015404327187,14.285059218457532L-49.621487683997586,-13.23426950123393zM-171.7144963696692,-5.621672811385861L-171.7144963696692,6.9964488816454145L-168.21015404327187,1.6669375254262564z" style="fill:rgb(153,221,255); fill-opacity: 0.4"></path><path d="M-237.23120209766975,-47.34604832071816L-233.72685977127244,-40.05743798390604L-178.3804058194358,-44.117259710795295z" style="fill:rgb(255,187,187); fill-opacity: 0.4"></path><path d="M-210.44534491864763,110.57270798812262L-309.26924080300074,122.99038142153914L-243.26092596789462,42.32024833475118z" style="fill:rgb(238,238,238); fill-opacity: 0.4"></path><path d="M-171.7144963696692,6.9964488816454145L-168.21015404327187,14.285059218457532L-168.21015404327187,1.6669375254262564z" style="fill:rgb(153,221,255); fill-opacity: 0.4"></path><path d="M-233.72685977127244,-40.05743798390604L-233.72685977127244,-27.43931629087476L-178.3804058194358,-44.117259710795295z" style="fill:rgb(255,187,187); fill-opacity: 0.4"></path><path d="M-168.21015404327184,1.6669375254262562L-168.21015404327184,14.285059218457533" style="fill:none;stroke:rgb(0,0,0);stroke-width:1;stroke-linecap:round"></path><path d="M-34.95983644047687,-29.452730216284486L-34.95983644047687,87.75424813735495L-67.51090744660267,-97.15504081031284z" style="fill:rgb(238,238,238); fill-opacity: 0.4"></path><path d="M-237.23120060221427,-47.34604850862896L-237.23120060221427,-34.727926815597684L-336.05509648656744,-34.92837507521243z" style="fill:rgb(153,221,255); fill-opacity: 0.4"></path><path d="M-332.55075416017,-15.021643045369018L-233.7268582758169,-27.439316478785557M-233.7268582758169,-40.057438171816834L-233.7268582758169,-27.439316478785557M-233.72685657173946,-27.439315623743013L-233.72685657173943,-40.05743972348999" style="fill:none;stroke:rgb(0,0,0);stroke-width:1;stroke-linecap:round"></path><path d="M-233.72685827581697,-40.05743817181685L-233.72685827581697,-27.439316478785564L-237.23120060221427,-47.34604850862896z" style="fill:rgb(153,221,255); fill-opacity: 0.4"></path><path d="M-237.23120209766975,-47.34604832071816L-233.72685977127244,-27.43931629087476L-233.72685977127244,-40.05743798390604z" style="fill:rgb(255,187,187); fill-opacity: 0.4"></path><path d="M-186.09957380587696,34.953144569986755L-153.54850279975116,102.65545516401512L-153.54850279975116,-14.551523189624298z" style="fill:rgb(238,238,238); fill-opacity: 0.4"></path><path d="M-233.72685827581697,-27.439316478785564L-332.5507541601701,-15.021643045369027L-237.23120060221427,-34.727926815597684z" style="fill:rgb(153,221,255); fill-opacity: 0.4"></path><path d="M-363.8050083188308,144.319914576281L-401.6072429389154,65.6958155745717L-401.6072429389154,-70.41908196602387z" style="fill:rgb(238,238,238); fill-opacity: 0.4"></path><path d="M-237.23120060221427,-34.727926815597684L-336.05509648656744,-22.310253382181145L-336.05509648656744,-34.92837507521243z" style="fill:rgb(153,221,255); fill-opacity: 0.4"></path><path d="M-342.0848218522477,-63.42148063605336L-309.26924080300074,4.83097901731808" style="fill:none;stroke:rgb(0,0,0);stroke-width:1;stroke-linecap:round"></path><path d="M-332.5507541601701,-15.021643045369027L-336.05509648656744,-22.310253382181145L-237.23120060221427,-34.727926815597684zM-233.72685827581697,-40.05743817181685L-237.23120060221427,-47.34604850862896L-336.05509648656744,-34.92837507521243z" style="fill:rgb(153,221,255); fill-opacity: 0.4"></path><path d="M19.640239407729922,-32.92456070582908L19.640239407729922,66.7899842420545L138.2289057670042,-47.825767732489275z" style="fill:rgb(238,238,238); fill-opacity: 0.4"></path><path d="M-332.55075416017,-27.6397647384003L-233.7268582758169,-40.057438171816834M-336.0550964865674,-34.928375075212415L-336.0550964865674,-22.310253382181138M-336.0550964865674,-22.310253382181138L-332.55075416017,-15.021643045369018" style="fill:none;stroke:rgb(0,0,0);stroke-width:1;stroke-linecap:round"></path><path d="M-332.5507541601701,-15.021643045369027L-233.72685827581697,-27.439316478785564L-233.72685827581697,-40.05743817181685z" style="fill:rgb(153,221,255); fill-opacity: 0.4"></path><path d="M19.640239407729933,-32.92456070582909L138.2289057670042,-47.825767732489275M-401.6072429389155,-70.41908196602388L-432.93367638675346,-66.48277266645799M-401.6072429389155,-70.41908196602388L-363.8050083188308,8.205017035685438M-153.54850279975113,-14.551523189624298L-153.54850279975113,102.65545516401511M-336.0550964865674,-34.928375075212415L-332.55075416017,-27.6397647384003" style="fill:none;stroke:rgb(0,0,0);stroke-width:1;stroke-linecap:round"></path><path d="M-332.5507541601701,-27.63976473840031L-233.72685827581697,-40.05743817181685L-336.05509648656744,-34.92837507521243zM-336.05509648656744,-34.92837507521243L-336.05509648656744,-22.310253382181145L-332.5507541601701,-27.63976473840031zM-332.5507541601701,-27.63976473840031L-332.5507541601701,-15.021643045369027L-233.72685827581697,-40.05743817181685zM-336.05509648656744,-22.310253382181145L-332.5507541601701,-15.021643045369027L-332.5507541601701,-27.63976473840031z" style="fill:rgb(153,221,255); fill-opacity: 0.4"></path><path d="M-342.0848218522477,-63.42148063605336L-342.0848218522477,54.737921768167716L-309.26924080300074,4.830979017318081z" style="fill:rgb(238,238,238); fill-opacity: 0.4"></path><path d="M-432.93367638675346,-66.48277266645799L-395.1314417666688,12.14132633525131M-386.64154679728614,22.374405424643292L-327.572276412236,25.771597844541603M-386.64154679728614,34.99252711767457L-327.572276412236,25.771597844541603M-383.1372044708888,42.28113745448669L-327.572276412236,25.771597844541603M-383.1372044708888,29.663015761455412L-327.572276412236,25.771597844541603M-332.55075416017,-27.6397647384003L-332.55075416017,-15.021643045369018M-386.64154679728614,22.374405424643292L-386.64154679728614,34.99252711767457M-386.64154679728614,34.99252711767457L-383.1372044708888,42.28113745448669M-386.64155736391774,22.37440686493825L-386.64155736391774,34.99252855796953M-386.64155736391774,34.99252855796953L-417.9679908117557,38.928837857535406M-386.64155736391774,34.99252855796953L-383.1372150375204,42.28113889478165" style="fill:none;stroke:rgb(0,0,0);stroke-width:1;stroke-linecap:round"></path><path d="M-153.54850279975116,102.65545516401512L-34.95983644047687,87.75424813735495L-34.95983644047687,-29.452730216284486zM-363.8050083188308,144.319914576281L-395.1314417666688,148.25622387584687L-401.6072429389154,65.6958155745717z" style="fill:rgb(238,238,238); fill-opacity: 0.4"></path><path d="M-386.6415576466977,34.99252859350213L-386.6415576466977,22.37440690047085L-327.5722872285201,25.771599308602138zM-383.13721532030036,42.28113893031425L-386.6415576466977,34.99252859350213L-327.5722872285201,25.771599308602138z" style="fill:rgb(255,187,187); fill-opacity: 0.4"></path><path d="M-383.1372150375204,42.28113889478165L-386.64155736391774,34.992528557969536L-386.64155736391774,22.37440686493825z" style="fill:rgb(153,221,255); fill-opacity: 0.4"></path><path d="M-386.6415576466977,22.37440690047085L-386.6415576466977,34.99252859350213L-383.13721532030036,42.28113893031425z" style="fill:rgb(255,187,187); fill-opacity: 0.4"></path><path d="M-417.9679908117557,26.310716164504125L-417.9679908117557,38.928837857535406M-417.9679908117557,38.928837857535406L-414.46364848535836,46.217448194347526M-309.26924080300074,122.99038142153917L-210.44534491864758,110.57270798812262M-210.44534491864758,-7.586694416098453L-210.44534491864758,110.57270798812262" style="fill:none;stroke:rgb(0,0,0);stroke-width:1;stroke-linecap:round"></path><path d="M-386.64155736391774,34.992528557969536L-417.9679908117558,38.928837857535406L-417.9679908117558,26.310716164504125zM-386.64155736391774,22.37440686493825L-386.64155736391774,34.992528557969536L-417.9679908117558,26.310716164504125z" style="fill:rgb(153,221,255); fill-opacity: 0.4"></path><path d="M-386.64154679728614,22.374405424643292L-383.1372044708888,29.663015761455412M-386.64155736391774,22.37440686493825L-417.9679908117557,26.310716164504125M-386.64155736391774,22.37440686493825L-383.1372150375204,29.66301720175037" style="fill:none;stroke:rgb(0,0,0);stroke-width:1;stroke-linecap:round"></path><path d="M-210.44534491864763,-7.586694416098453L-243.26092596789462,-75.8391540694699L-342.0848218522477,-63.42148063605336z" style="fill:rgb(238,238,238); fill-opacity: 0.4"></path><path d="M-414.4636484853584,46.217448194347526L-417.9679908117558,38.928837857535406L-386.64155736391774,34.992528557969536z" style="fill:rgb(153,221,255); fill-opacity: 0.4"></path><path d="M-386.6415576466977,22.37440690047085L-383.13721532030036,29.663017237282965L-327.5722872285201,25.771599308602138zM-383.13721532030036,29.663017237282965L-383.13721532030036,42.28113893031425L-327.5722872285201,25.771599308602138z" style="fill:rgb(255,187,187); fill-opacity: 0.4"></path><path d="M-383.1372150375204,42.28113889478165L-414.4636484853584,46.217448194347526L-386.64155736391774,34.992528557969536z" style="fill:rgb(153,221,255); fill-opacity: 0.4"></path><path d="M-383.1372044708888,42.28113745448669L-383.1372044708888,29.663015761455412M-414.46364848535836,46.217448194347526L-383.1372150375204,42.28113889478165M-383.1372150375204,29.66301720175037L-383.1372150375204,42.28113889478165" style="fill:none;stroke:rgb(0,0,0);stroke-width:1;stroke-linecap:round"></path><path d="M-342.0848218522477,54.737921768167716L-309.26924080300074,122.99038142153914L-309.26924080300074,4.830979017318081z" style="fill:rgb(238,238,238); fill-opacity: 0.4"></path><path d="M-383.1372150375204,29.66301720175037L-383.1372150375204,42.28113889478165L-386.64155736391774,22.37440686493825z" style="fill:rgb(153,221,255); fill-opacity: 0.4"></path><path d="M-386.6415576466977,22.37440690047085L-383.13721532030036,42.28113893031425L-383.13721532030036,29.663017237282965z" style="fill:rgb(255,187,187); fill-opacity: 0.4"></path><path d="M-383.1372150375204,29.66301720175037L-386.64155736391774,22.37440686493825L-417.9679908117558,26.310716164504125z" style="fill:rgb(153,221,255); fill-opacity: 0.4"></path><path d="M-417.9679908117557,26.310716164504125L-414.46364848535836,33.59932650131625" style="fill:none;stroke:rgb(0,0,0);stroke-width:1;stroke-linecap:round"></path><path d="M-210.44534491864763,-7.586694416098453L-210.44534491864763,110.57270798812262L-243.26092596789462,-75.8391540694699zM-432.93367638675346,-66.48277266645799L-432.93367638675346,69.63212487413757L-395.1314417666688,12.14132633525131z" style="fill:rgb(238,238,238); fill-opacity: 0.4"></path><path d="M-417.9679908117558,26.310716164504125L-417.9679908117558,38.928837857535406L-414.4636484853584,33.59932650131624zM-414.4636484853584,46.217448194347526L-383.1372150375204,42.28113889478165L-383.1372150375204,29.66301720175037zM-417.9679908117558,38.928837857535406L-414.4636484853584,46.217448194347526L-414.4636484853584,33.59932650131624z" style="fill:rgb(153,221,255); fill-opacity: 0.4"></path><path d="M-153.54850279975116,-14.551523189624298L-34.95983644047687,-29.452730216284486L-186.09957380587696,-82.25383378365265z" style="fill:rgb(238,238,238); fill-opacity: 0.4"></path><path d="M-414.46364848535836,33.59932650131625L-414.46364848535836,46.217448194347526M-414.46364848535836,33.59932650131625L-383.1372150375204,29.66301720175037" style="fill:none;stroke:rgb(0,0,0);stroke-width:1;stroke-linecap:round"></path><path d="M-414.4636484853584,33.59932650131624L-383.1372150375204,29.66301720175037L-417.9679908117558,26.310716164504125zM-414.4636484853584,33.59932650131624L-414.4636484853584,46.217448194347526L-383.1372150375204,29.66301720175037z" style="fill:rgb(153,221,255); fill-opacity: 0.4"></path><path d="M-309.26924080300074,4.83097901731808L-309.26924080300074,122.99038142153917" style="fill:none;stroke:rgb(0,0,0);stroke-width:1;stroke-linecap:round"></path><path d="M-432.93367638675346,69.63212487413757L-395.1314417666688,148.25622387584687L-395.1314417666688,12.14132633525131zM-153.54850279975116,-14.551523189624298L-153.54850279975116,102.65545516401512L-34.95983644047687,-29.452730216284486zM-309.26924080300074,122.99038142153914L-210.44534491864763,110.57270798812262L-210.44534491864763,-7.586694416098453zM-363.8050083188308,8.205017035685438L-401.6072429389154,-70.41908196602387L-432.93367638675346,-66.48277266645799z" style="fill:rgb(238,238,238); fill-opacity: 0.4"></path><path d="M-153.54850279975113,-14.551523189624298L-34.95983644047687,-29.452730216284483M-395.1314417666688,148.25622387584687L-363.8050083188308,144.319914576281M-363.8050083188308,8.205017035685438L-363.8050083188308,144.319914576281M-395.1314417666688,12.14132633525131L-395.1314417666688,148.25622387584687" style="fill:none;stroke:rgb(0,0,0);stroke-width:1;stroke-linecap:round"></path><path d="M-309.26924080300074,4.830979017318081L-210.44534491864763,-7.586694416098453L-342.0848218522477,-63.42148063605336zM-363.8050083188308,8.205017035685438L-363.8050083188308,144.319914576281L-401.6072429389154,-70.41908196602387zM-309.26924080300074,4.830979017318081L-309.26924080300074,122.99038142153914L-210.44534491864763,-7.586694416098453zM-395.1314417666688,148.25622387584687L-363.8050083188308,144.319914576281L-363.8050083188308,8.205017035685438z" style="fill:rgb(238,238,238); fill-opacity: 0.4"></path><path d="M-309.26924080300074,4.83097901731808L-210.44534491864758,-7.586694416098453" style="fill:none;stroke:rgb(0,0,0);stroke-width:1;stroke-linecap:round"></path><path d="M-395.1314417666688,12.14132633525131L-363.8050083188308,8.205017035685438L-432.93367638675346,-66.48277266645799zM-395.1314417666688,12.14132633525131L-395.1314417666688,148.25622387584687L-363.8050083188308,8.205017035685438z" style="fill:rgb(238,238,238); fill-opacity: 0.4"></path><path d="M-395.1314417666688,12.14132633525131L-363.8050083188308,8.205017035685438" style="fill:none;stroke:rgb(0,0,0);stroke-width:1;stroke-linecap:round"></path></svg>